<svg width="68" height="68" viewBox="0 0 68 68" fill="none" xmlns="http://www.w3.org/2000/svg">
<path d="M56.6667 25.5H31.1667C28.0371 25.5 25.5 28.0371 25.5 31.1667V56.6667C25.5 59.7963 28.0371 62.3333 31.1667 62.3333H56.6667C59.7963 62.3333 62.3333 59.7963 62.3333 56.6667V31.1667C62.3333 28.0371 59.7963 25.5 56.6667 25.5Z" stroke="#272727" stroke-width="5.66667" stroke-linecap="round" stroke-linejoin="round"/>
<path d="M14.1667 42.5H11.3334C9.83046 42.5 8.38912 41.903 7.32641 40.8403C6.26371 39.7776 5.66669 38.3362 5.66669 36.8333V11.3333C5.66669 9.83044 6.26371 8.38911 7.32641 7.3264C8.38912 6.26369 9.83046 5.66667 11.3334 5.66667H36.8334C38.3362 5.66667 39.7776 6.26369 40.8403 7.3264C41.903 8.38911 42.5 9.83044 42.5 11.3333V14.1667" stroke="#272727" stroke-width="5.66667" stroke-linecap="round" stroke-linejoin="round"/>
</svg>
