<svg width="68" height="68" viewBox="0 0 68 68" fill="none" xmlns="http://www.w3.org/2000/svg">
<path d="M48.1666 59.5V53.8333C48.1666 50.8275 46.9726 47.9449 44.8472 45.8195C42.7218 43.694 39.8391 42.5 36.8333 42.5H14.1666C11.1609 42.5 8.27818 43.694 6.15277 45.8195C4.02736 47.9449 2.83331 50.8275 2.83331 53.8333V59.5" stroke="#272727" stroke-width="5.66667" stroke-linecap="round" stroke-linejoin="round"/>
<path d="M25.5 31.1667C31.7592 31.1667 36.8334 26.0926 36.8334 19.8333C36.8334 13.5741 31.7592 8.5 25.5 8.5C19.2408 8.5 14.1667 13.5741 14.1667 19.8333C14.1667 26.0926 19.2408 31.1667 25.5 31.1667Z" stroke="#272727" stroke-width="5.66667" stroke-linecap="round" stroke-linejoin="round"/>
<path d="M65.1667 59.5V53.8333C65.1648 51.3222 64.329 48.8829 62.7906 46.8982C61.2521 44.9136 59.0981 43.4961 56.6667 42.8683" stroke="#272727" stroke-width="5.66667" stroke-linecap="round" stroke-linejoin="round"/>
<path d="M45.3333 8.86833C47.7712 9.49252 49.9319 10.9103 51.475 12.8982C53.018 14.8861 53.8555 17.331 53.8555 19.8475C53.8555 22.364 53.018 24.8089 51.475 26.7968C49.9319 28.7847 47.7712 30.2025 45.3333 30.8267" stroke="#272727" stroke-width="5.66667" stroke-linecap="round" stroke-linejoin="round"/>
</svg>
